<mxfile host="app.diagrams.net" modified="2022-09-15T03:11:30.201Z" agent="5.0 (Windows NT 10.0; Win64; x64) AppleWebKit/537.36 (KHTML, like Gecko) Chrome/105.0.0.0 Safari/537.36" etag="4pGar8T0dAwBjzt4-KBK" version="20.3.0" type="github">
  <diagram id="0aq3GvoXTkqNCICBaCr3" name="第 1 页">
    <mxGraphModel dx="2188" dy="1188" grid="1" gridSize="10" guides="1" tooltips="1" connect="1" arrows="1" fold="1" page="1" pageScale="1" pageWidth="583" pageHeight="827" background="#D4E1F5" math="0" shadow="0">
      <root>
        <mxCell id="0" />
        <mxCell id="1" parent="0" />
        <mxCell id="PO-sIttTJYuamxAf0rOj-8" style="edgeStyle=orthogonalEdgeStyle;hachureGap=4;orthogonalLoop=1;jettySize=auto;html=1;exitX=0.5;exitY=1;exitDx=0;exitDy=0;entryX=0.5;entryY=0;entryDx=0;entryDy=0;fontFamily=Lucida Console;fontSize=18;endArrow=none;sourcePerimeterSpacing=8;targetPerimeterSpacing=8;startArrow=none;startFill=0;endFill=0;rounded=1;sketch=1;elbow=vertical;curved=1;strokeColor=#FFD966;" parent="1" source="PO-sIttTJYuamxAf0rOj-3" target="PO-sIttTJYuamxAf0rOj-4" edge="1">
          <mxGeometry relative="1" as="geometry" />
        </mxCell>
        <mxCell id="PO-sIttTJYuamxAf0rOj-25" style="edgeStyle=orthogonalEdgeStyle;hachureGap=4;orthogonalLoop=1;jettySize=auto;html=1;exitX=0.5;exitY=1;exitDx=0;exitDy=0;entryX=0.5;entryY=0;entryDx=0;entryDy=0;fontFamily=Lucida Console;fontSize=18;startArrow=none;startFill=0;endArrow=none;endFill=0;sourcePerimeterSpacing=8;targetPerimeterSpacing=8;rounded=1;sketch=1;elbow=vertical;curved=1;strokeColor=#FFD966;" parent="1" source="PO-sIttTJYuamxAf0rOj-3" target="PO-sIttTJYuamxAf0rOj-9" edge="1">
          <mxGeometry relative="1" as="geometry" />
        </mxCell>
        <mxCell id="PO-sIttTJYuamxAf0rOj-3" value="v8优化&lt;br style=&quot;font-size: 18px;&quot;&gt;64位：1464MB&lt;br style=&quot;font-size: 18px;&quot;&gt;32位：732MB&lt;br style=&quot;font-size: 18px;&quot;&gt;NodeV14：2GB" style="whiteSpace=wrap;html=1;hachureGap=4;fontFamily=Lucida Console;fontSize=18;rounded=1;sketch=1;strokeColor=#FFD966;fillColor=#FFD966;fillStyle=solid;" parent="1" vertex="1">
          <mxGeometry x="499" y="40" width="170" height="100" as="geometry" />
        </mxCell>
        <mxCell id="PO-sIttTJYuamxAf0rOj-21" style="edgeStyle=orthogonalEdgeStyle;hachureGap=4;orthogonalLoop=1;jettySize=auto;html=1;exitX=0.5;exitY=1;exitDx=0;exitDy=0;entryX=0.5;entryY=0;entryDx=0;entryDy=0;fontFamily=Lucida Console;fontSize=18;startArrow=none;startFill=0;endArrow=none;endFill=0;sourcePerimeterSpacing=8;targetPerimeterSpacing=8;rounded=1;sketch=1;elbow=vertical;curved=1;strokeColor=#FFD966;" parent="1" source="PO-sIttTJYuamxAf0rOj-4" target="PO-sIttTJYuamxAf0rOj-20" edge="1">
          <mxGeometry relative="1" as="geometry" />
        </mxCell>
        <mxCell id="PO-sIttTJYuamxAf0rOj-4" value="新生代&lt;br style=&quot;font-size: 18px;&quot;&gt;64位：64MB&lt;br style=&quot;font-size: 18px;&quot;&gt;32位：32MB" style="whiteSpace=wrap;html=1;fontSize=18;fontFamily=Lucida Console;hachureGap=4;rounded=1;sketch=1;strokeColor=#FFD966;" parent="1" vertex="1">
          <mxGeometry x="280" y="250" width="150" height="80" as="geometry" />
        </mxCell>
        <mxCell id="PO-sIttTJYuamxAf0rOj-29" value="" style="edgeStyle=orthogonalEdgeStyle;hachureGap=4;orthogonalLoop=1;jettySize=auto;html=1;fontFamily=Lucida Console;fontSize=18;startArrow=none;startFill=0;endArrow=none;endFill=0;sourcePerimeterSpacing=8;targetPerimeterSpacing=8;rounded=1;sketch=1;elbow=vertical;curved=1;strokeColor=#FFD966;" parent="1" source="PO-sIttTJYuamxAf0rOj-9" target="PO-sIttTJYuamxAf0rOj-28" edge="1">
          <mxGeometry relative="1" as="geometry" />
        </mxCell>
        <mxCell id="PO-sIttTJYuamxAf0rOj-9" value="老生代&lt;br style=&quot;font-size: 18px;&quot;&gt;64位：1000MB&lt;br style=&quot;font-size: 18px;&quot;&gt;32位：700MB" style="whiteSpace=wrap;html=1;fontSize=18;fontFamily=Lucida Console;hachureGap=4;strokeColor=#FFD966;rounded=1;sketch=1;fillColor=#FFFFFF;fillStyle=solid;" parent="1" vertex="1">
          <mxGeometry x="850" y="250" width="150" height="80" as="geometry" />
        </mxCell>
        <mxCell id="PO-sIttTJYuamxAf0rOj-15" value="" style="edgeStyle=orthogonalEdgeStyle;hachureGap=4;orthogonalLoop=1;jettySize=auto;html=1;fontFamily=Lucida Console;fontSize=18;endArrow=none;sourcePerimeterSpacing=8;targetPerimeterSpacing=8;startArrow=none;startFill=0;endFill=0;rounded=1;sketch=1;elbow=vertical;curved=1;strokeColor=#FFD966;" parent="1" source="PO-sIttTJYuamxAf0rOj-12" target="PO-sIttTJYuamxAf0rOj-14" edge="1">
          <mxGeometry relative="1" as="geometry" />
        </mxCell>
        <mxCell id="PO-sIttTJYuamxAf0rOj-17" style="edgeStyle=orthogonalEdgeStyle;hachureGap=4;orthogonalLoop=1;jettySize=auto;html=1;exitX=0.5;exitY=1;exitDx=0;exitDy=0;entryX=0.5;entryY=0;entryDx=0;entryDy=0;fontFamily=Lucida Console;fontSize=18;endArrow=none;sourcePerimeterSpacing=8;targetPerimeterSpacing=8;startArrow=none;startFill=0;endFill=0;rounded=1;sketch=1;elbow=vertical;curved=1;strokeColor=#FFD966;" parent="1" source="PO-sIttTJYuamxAf0rOj-12" target="PO-sIttTJYuamxAf0rOj-16" edge="1">
          <mxGeometry relative="1" as="geometry" />
        </mxCell>
        <mxCell id="PO-sIttTJYuamxAf0rOj-12" value="两个区域&lt;br style=&quot;font-size: 18px;&quot;&gt;(等分)" style="whiteSpace=wrap;html=1;fontSize=18;fontFamily=Lucida Console;hachureGap=4;rounded=1;sketch=1;strokeColor=#FFD966;" parent="1" vertex="1">
          <mxGeometry x="360" y="413" width="120" height="60" as="geometry" />
        </mxCell>
        <mxCell id="PO-sIttTJYuamxAf0rOj-14" value="Semi Space (From)" style="whiteSpace=wrap;html=1;fontSize=18;fontFamily=Lucida Console;hachureGap=4;rounded=1;sketch=1;strokeColor=#FFD966;" parent="1" vertex="1">
          <mxGeometry x="270" y="550" width="120" height="60" as="geometry" />
        </mxCell>
        <mxCell id="PO-sIttTJYuamxAf0rOj-16" value="Semi Space (To)" style="whiteSpace=wrap;html=1;fontSize=18;fontFamily=Lucida Console;hachureGap=4;rounded=1;sketch=1;strokeColor=#FFD966;" parent="1" vertex="1">
          <mxGeometry x="430" y="550" width="120" height="60" as="geometry" />
        </mxCell>
        <mxCell id="PO-sIttTJYuamxAf0rOj-20" value="如何进行？&lt;br style=&quot;font-size: 18px;&quot;&gt;(Scavenge算法)" style="whiteSpace=wrap;html=1;fontSize=18;fontFamily=Lucida Console;hachureGap=4;rounded=1;sketch=1;strokeColor=#FFD966;" parent="1" vertex="1">
          <mxGeometry x="50" y="413" width="165" height="60" as="geometry" />
        </mxCell>
        <mxCell id="PO-sIttTJYuamxAf0rOj-31" value="" style="edgeStyle=orthogonalEdgeStyle;hachureGap=4;orthogonalLoop=1;jettySize=auto;html=1;fontFamily=Lucida Console;fontSize=18;startArrow=none;startFill=0;endArrow=none;endFill=0;sourcePerimeterSpacing=8;targetPerimeterSpacing=8;rounded=1;sketch=1;elbow=vertical;curved=1;strokeColor=#FFD966;" parent="1" source="PO-sIttTJYuamxAf0rOj-28" target="PO-sIttTJYuamxAf0rOj-30" edge="1">
          <mxGeometry relative="1" as="geometry" />
        </mxCell>
        <mxCell id="PO-sIttTJYuamxAf0rOj-28" value="标记清除&lt;br&gt;(Mark-Sweep)" style="whiteSpace=wrap;html=1;fontSize=18;fontFamily=Lucida Console;hachureGap=4;strokeColor=#FFD966;rounded=1;sketch=1;" parent="1" vertex="1">
          <mxGeometry x="850" y="383" width="150" height="60" as="geometry" />
        </mxCell>
        <mxCell id="2hUGISll8BHYj2xu90Tu-7" style="edgeStyle=orthogonalEdgeStyle;curved=1;sketch=1;orthogonalLoop=1;jettySize=auto;html=1;exitX=1;exitY=0.5;exitDx=0;exitDy=0;entryX=0;entryY=0.5;entryDx=0;entryDy=0;strokeColor=#FFD966;startArrow=none;startFill=0;endArrow=none;endFill=0;" edge="1" parent="1" source="PO-sIttTJYuamxAf0rOj-30" target="2hUGISll8BHYj2xu90Tu-1">
          <mxGeometry relative="1" as="geometry" />
        </mxCell>
        <mxCell id="2hUGISll8BHYj2xu90Tu-10" value="&lt;font style=&quot;font-size: 18px;&quot;&gt;优化&lt;/font&gt;" style="edgeLabel;html=1;align=center;verticalAlign=middle;resizable=0;points=[];" vertex="1" connectable="0" parent="2hUGISll8BHYj2xu90Tu-7">
          <mxGeometry x="0.0688" y="1" relative="1" as="geometry">
            <mxPoint as="offset" />
          </mxGeometry>
        </mxCell>
        <mxCell id="PO-sIttTJYuamxAf0rOj-30" value="清除后内存空间不连续" style="whiteSpace=wrap;html=1;fontSize=18;fontFamily=Lucida Console;hachureGap=4;rounded=1;sketch=1;strokeColor=#FFD966;" parent="1" vertex="1">
          <mxGeometry x="865" y="490" width="120" height="60" as="geometry" />
        </mxCell>
        <mxCell id="PO-sIttTJYuamxAf0rOj-36" value="" style="edgeStyle=orthogonalEdgeStyle;hachureGap=4;orthogonalLoop=1;jettySize=auto;html=1;fontFamily=Lucida Console;fontSize=18;startArrow=none;startFill=0;endArrow=none;endFill=0;sourcePerimeterSpacing=8;targetPerimeterSpacing=8;rounded=1;sketch=1;curved=1;strokeColor=#FFD966;" parent="1" source="PO-sIttTJYuamxAf0rOj-32" target="PO-sIttTJYuamxAf0rOj-35" edge="1">
          <mxGeometry relative="1" as="geometry" />
        </mxCell>
        <mxCell id="2hUGISll8BHYj2xu90Tu-12" value="" style="edgeStyle=orthogonalEdgeStyle;curved=1;sketch=1;orthogonalLoop=1;jettySize=auto;html=1;strokeColor=#FFD966;fontSize=18;startArrow=none;startFill=0;endArrow=none;endFill=0;" edge="1" parent="1" source="PO-sIttTJYuamxAf0rOj-32" target="2hUGISll8BHYj2xu90Tu-11">
          <mxGeometry relative="1" as="geometry" />
        </mxCell>
        <mxCell id="2hUGISll8BHYj2xu90Tu-15" style="edgeStyle=orthogonalEdgeStyle;curved=1;sketch=1;orthogonalLoop=1;jettySize=auto;html=1;exitX=1;exitY=0.5;exitDx=0;exitDy=0;entryX=0.5;entryY=0;entryDx=0;entryDy=0;strokeColor=#FFD966;fontSize=18;startArrow=none;startFill=0;endArrow=none;endFill=0;" edge="1" parent="1" source="PO-sIttTJYuamxAf0rOj-32" target="2hUGISll8BHYj2xu90Tu-14">
          <mxGeometry relative="1" as="geometry" />
        </mxCell>
        <mxCell id="PO-sIttTJYuamxAf0rOj-32" value="标记整理&lt;br&gt;(Mark-Compact)" style="whiteSpace=wrap;html=1;fontSize=18;fontFamily=Lucida Console;hachureGap=4;rounded=1;sketch=1;strokeColor=#FFD966;" parent="1" vertex="1">
          <mxGeometry x="1090" y="680" width="170" height="60" as="geometry" />
        </mxCell>
        <mxCell id="PO-sIttTJYuamxAf0rOj-35" value="增量标记" style="whiteSpace=wrap;html=1;fontSize=18;fontFamily=Lucida Console;hachureGap=4;rounded=1;sketch=1;strokeColor=#FFD966;" parent="1" vertex="1">
          <mxGeometry x="730" y="830" width="120" height="60" as="geometry" />
        </mxCell>
        <mxCell id="4X2DJWtPw2BM1eevBTNo-10" value="新生代&lt;br style=&quot;font-size: 18px;&quot;&gt;64位：64MB&lt;br style=&quot;font-size: 18px;&quot;&gt;32位：32MB" style="whiteSpace=wrap;html=1;fontSize=18;fontFamily=Lucida Console;hachureGap=4;rounded=1;sketch=1;strokeColor=#FFD966;" parent="1" vertex="1">
          <mxGeometry x="280" y="250" width="150" height="80" as="geometry" />
        </mxCell>
        <mxCell id="4X2DJWtPw2BM1eevBTNo-12" value="两个区域&lt;br style=&quot;font-size: 18px;&quot;&gt;(等分)" style="whiteSpace=wrap;html=1;fontSize=18;fontFamily=Lucida Console;hachureGap=4;rounded=1;sketch=1;strokeColor=#FFD966;" parent="1" vertex="1">
          <mxGeometry x="360" y="413" width="120" height="60" as="geometry" />
        </mxCell>
        <mxCell id="4X2DJWtPw2BM1eevBTNo-14" value="新生代&lt;br style=&quot;font-size: 18px;&quot;&gt;64位：64MB&lt;br style=&quot;font-size: 18px;&quot;&gt;32位：32MB" style="whiteSpace=wrap;html=1;fontSize=18;fontFamily=Lucida Console;hachureGap=4;rounded=1;sketch=1;strokeColor=#FFD966;" parent="1" vertex="1">
          <mxGeometry x="280" y="250" width="150" height="80" as="geometry" />
        </mxCell>
        <mxCell id="4X2DJWtPw2BM1eevBTNo-16" value="两个区域&lt;br style=&quot;font-size: 18px;&quot;&gt;(等分)" style="whiteSpace=wrap;html=1;fontSize=18;fontFamily=Lucida Console;hachureGap=4;rounded=1;sketch=1;strokeColor=#FFD966;" parent="1" vertex="1">
          <mxGeometry x="360" y="413" width="120" height="60" as="geometry" />
        </mxCell>
        <mxCell id="4X2DJWtPw2BM1eevBTNo-18" value="Semi Space (From)" style="whiteSpace=wrap;html=1;fontSize=18;fontFamily=Lucida Console;hachureGap=4;rounded=1;sketch=1;strokeColor=#FFD966;" parent="1" vertex="1">
          <mxGeometry x="270" y="550" width="120" height="60" as="geometry" />
        </mxCell>
        <mxCell id="4X2DJWtPw2BM1eevBTNo-20" value="增量标记" style="whiteSpace=wrap;html=1;fontSize=18;fontFamily=Lucida Console;hachureGap=4;rounded=1;sketch=1;strokeColor=#FFD966;" parent="1" vertex="1">
          <mxGeometry x="730" y="830" width="120" height="60" as="geometry" />
        </mxCell>
        <mxCell id="4X2DJWtPw2BM1eevBTNo-23" value="新生代&lt;br style=&quot;font-size: 18px;&quot;&gt;64位：64MB&lt;br style=&quot;font-size: 18px;&quot;&gt;32位：32MB" style="whiteSpace=wrap;html=1;fontSize=18;fontFamily=Lucida Console;hachureGap=4;rounded=1;sketch=1;strokeColor=#FFD966;fillColor=#FFFFFF;fillStyle=solid;" parent="1" vertex="1">
          <mxGeometry x="280" y="250" width="150" height="80" as="geometry" />
        </mxCell>
        <mxCell id="4X2DJWtPw2BM1eevBTNo-25" value="两个区域&lt;br style=&quot;font-size: 18px;&quot;&gt;(等分)" style="whiteSpace=wrap;html=1;fontSize=18;fontFamily=Lucida Console;hachureGap=4;rounded=1;sketch=1;strokeColor=#FFD966;fillColor=#FFFFFF;fillStyle=solid;" parent="1" vertex="1">
          <mxGeometry x="360" y="413" width="120" height="60" as="geometry" />
        </mxCell>
        <mxCell id="2hUGISll8BHYj2xu90Tu-20" style="edgeStyle=orthogonalEdgeStyle;curved=1;sketch=1;orthogonalLoop=1;jettySize=auto;html=1;exitX=0.5;exitY=1;exitDx=0;exitDy=0;entryX=0.5;entryY=0;entryDx=0;entryDy=0;strokeColor=#FFD966;fontSize=18;startArrow=none;startFill=0;endArrow=none;endFill=0;" edge="1" parent="1" source="4X2DJWtPw2BM1eevBTNo-26" target="2hUGISll8BHYj2xu90Tu-16">
          <mxGeometry relative="1" as="geometry" />
        </mxCell>
        <mxCell id="4X2DJWtPw2BM1eevBTNo-26" value="全停顿(Stop the World)&lt;br&gt;&lt;br&gt;垃圾回收过程会全停顿JS的执行，如果垃圾回收耗时较长，会影响性能" style="whiteSpace=wrap;html=1;fontSize=18;fontFamily=Lucida Console;hachureGap=4;rounded=1;sketch=1;strokeColor=#FFD966;fillColor=#FFFFFF;fillStyle=solid;" parent="1" vertex="1">
          <mxGeometry x="570" y="413" width="250" height="117" as="geometry" />
        </mxCell>
        <mxCell id="4X2DJWtPw2BM1eevBTNo-27" value="Semi Space (From)" style="whiteSpace=wrap;html=1;fontSize=18;fontFamily=Lucida Console;hachureGap=4;rounded=1;sketch=1;strokeColor=#FFD966;fillColor=#FFFFFF;fillStyle=solid;" parent="1" vertex="1">
          <mxGeometry x="270" y="550" width="120" height="60" as="geometry" />
        </mxCell>
        <mxCell id="2hUGISll8BHYj2xu90Tu-23" value="" style="edgeStyle=orthogonalEdgeStyle;curved=1;sketch=1;orthogonalLoop=1;jettySize=auto;html=1;strokeColor=#FFD966;fontSize=18;startArrow=none;startFill=0;endArrow=none;endFill=0;" edge="1" parent="1" source="4X2DJWtPw2BM1eevBTNo-29" target="2hUGISll8BHYj2xu90Tu-22">
          <mxGeometry relative="1" as="geometry" />
        </mxCell>
        <mxCell id="2hUGISll8BHYj2xu90Tu-25" style="edgeStyle=orthogonalEdgeStyle;curved=1;sketch=1;orthogonalLoop=1;jettySize=auto;html=1;exitX=0;exitY=0.5;exitDx=0;exitDy=0;strokeColor=#FFD966;fontSize=18;startArrow=none;startFill=0;endArrow=none;endFill=0;" edge="1" parent="1" source="4X2DJWtPw2BM1eevBTNo-29" target="2hUGISll8BHYj2xu90Tu-24">
          <mxGeometry relative="1" as="geometry" />
        </mxCell>
        <mxCell id="2hUGISll8BHYj2xu90Tu-27" value="" style="edgeStyle=orthogonalEdgeStyle;curved=1;sketch=1;orthogonalLoop=1;jettySize=auto;html=1;strokeColor=#FFD966;fontSize=18;startArrow=none;startFill=0;endArrow=none;endFill=0;" edge="1" parent="1" source="4X2DJWtPw2BM1eevBTNo-29" target="2hUGISll8BHYj2xu90Tu-26">
          <mxGeometry relative="1" as="geometry" />
        </mxCell>
        <mxCell id="4X2DJWtPw2BM1eevBTNo-29" value="增量标记" style="whiteSpace=wrap;html=1;fontSize=18;fontFamily=Lucida Console;hachureGap=4;rounded=1;sketch=1;strokeColor=#FFD966;fillColor=#FFFFFF;fillStyle=solid;" parent="1" vertex="1">
          <mxGeometry x="730" y="830" width="120" height="60" as="geometry" />
        </mxCell>
        <mxCell id="2hUGISll8BHYj2xu90Tu-17" style="edgeStyle=orthogonalEdgeStyle;curved=1;sketch=1;orthogonalLoop=1;jettySize=auto;html=1;exitX=0.5;exitY=1;exitDx=0;exitDy=0;entryX=0.5;entryY=0;entryDx=0;entryDy=0;strokeColor=#FFD966;fontSize=18;startArrow=none;startFill=0;endArrow=none;endFill=0;" edge="1" parent="1" source="4X2DJWtPw2BM1eevBTNo-32" target="4X2DJWtPw2BM1eevBTNo-26">
          <mxGeometry relative="1" as="geometry" />
        </mxCell>
        <mxCell id="2hUGISll8BHYj2xu90Tu-19" style="edgeStyle=orthogonalEdgeStyle;curved=1;sketch=1;orthogonalLoop=1;jettySize=auto;html=1;exitX=0.5;exitY=1;exitDx=0;exitDy=0;entryX=0.5;entryY=0;entryDx=0;entryDy=0;strokeColor=#FFD966;fontSize=18;startArrow=none;startFill=0;endArrow=none;endFill=0;" edge="1" parent="1" source="4X2DJWtPw2BM1eevBTNo-32" target="4X2DJWtPw2BM1eevBTNo-25">
          <mxGeometry relative="1" as="geometry" />
        </mxCell>
        <mxCell id="4X2DJWtPw2BM1eevBTNo-32" value="新生代&lt;br style=&quot;font-size: 18px;&quot;&gt;64位：64MB&lt;br style=&quot;font-size: 18px;&quot;&gt;32位：32MB" style="whiteSpace=wrap;html=1;fontSize=18;fontFamily=Lucida Console;hachureGap=4;rounded=1;sketch=1;strokeColor=#FFD966;fillColor=#FFFFFF;fillStyle=solid;" parent="1" vertex="1">
          <mxGeometry x="280" y="250" width="150" height="80" as="geometry" />
        </mxCell>
        <mxCell id="2hUGISll8BHYj2xu90Tu-8" style="edgeStyle=orthogonalEdgeStyle;curved=1;sketch=1;orthogonalLoop=1;jettySize=auto;html=1;exitX=0.5;exitY=1;exitDx=0;exitDy=0;entryX=0.546;entryY=-0.006;entryDx=0;entryDy=0;entryPerimeter=0;strokeColor=#FFD966;startArrow=none;startFill=0;endArrow=none;endFill=0;" edge="1" parent="1" source="2hUGISll8BHYj2xu90Tu-1" target="PO-sIttTJYuamxAf0rOj-32">
          <mxGeometry relative="1" as="geometry" />
        </mxCell>
        <mxCell id="2hUGISll8BHYj2xu90Tu-1" value="先整理再清除&lt;br&gt;因为整理的过程中活动对象会覆盖原本是垃圾的内存空间，省去了一部分清除的成本" style="whiteSpace=wrap;html=1;fontSize=18;fontFamily=Lucida Console;hachureGap=4;rounded=1;sketch=1;strokeColor=#FFD966;" vertex="1" parent="1">
          <mxGeometry x="1110" y="445" width="150" height="150" as="geometry" />
        </mxCell>
        <mxCell id="2hUGISll8BHYj2xu90Tu-11" value="惰性清理" style="whiteSpace=wrap;html=1;fontSize=18;fontFamily=Lucida Console;strokeColor=#FFD966;hachureGap=4;rounded=1;sketch=1;" vertex="1" parent="1">
          <mxGeometry x="1115" y="830" width="120" height="60" as="geometry" />
        </mxCell>
        <mxCell id="2hUGISll8BHYj2xu90Tu-14" value="并发回收" style="whiteSpace=wrap;html=1;fontSize=18;fontFamily=Lucida Console;strokeColor=#FFD966;hachureGap=4;rounded=1;sketch=1;" vertex="1" parent="1">
          <mxGeometry x="1430" y="820" width="120" height="60" as="geometry" />
        </mxCell>
        <mxCell id="2hUGISll8BHYj2xu90Tu-16" value="并行回收&lt;br&gt;&lt;br&gt;开启多个辅助线程一起执行垃圾回收缩短全停顿的事件" style="whiteSpace=wrap;html=1;fontSize=18;fontFamily=Lucida Console;hachureGap=4;rounded=1;sketch=1;strokeColor=#FFD966;fillColor=#FFFFFF;fillStyle=solid;" vertex="1" parent="1">
          <mxGeometry x="570" y="600" width="250" height="90" as="geometry" />
        </mxCell>
        <mxCell id="2hUGISll8BHYj2xu90Tu-22" value="三色标记法" style="whiteSpace=wrap;html=1;fontSize=18;fontFamily=Lucida Console;hachureGap=4;rounded=1;sketch=1;strokeColor=#FFD966;fillColor=#FFFFFF;fillStyle=solid;" vertex="1" parent="1">
          <mxGeometry x="620" y="970" width="120" height="60" as="geometry" />
        </mxCell>
        <mxCell id="2hUGISll8BHYj2xu90Tu-24" value="&lt;font face=&quot;Lucida Console&quot;&gt;为什么？&lt;/font&gt;&lt;br&gt;&lt;font face=&quot;Lucida Console&quot;&gt;老生代对象内存占用大，全停顿耗时长&lt;/font&gt;&lt;br&gt;&lt;font face=&quot;Lucida Console&quot;&gt;是什么？&lt;/font&gt;&lt;br&gt;&lt;font face=&quot;Lucida Console&quot;&gt;把原本一次较长的全停顿执行标记的过程，拆分为多次短暂的全停顿标记&lt;/font&gt;" style="shape=note;whiteSpace=wrap;html=1;backgroundOutline=1;darkOpacity=0.05;fillStyle=solid;fontSize=18;fillColor=#FFD966;align=left;" vertex="1" parent="1">
          <mxGeometry x="480" y="740" width="130" height="240" as="geometry" />
        </mxCell>
        <mxCell id="2hUGISll8BHYj2xu90Tu-26" value="写屏障" style="whiteSpace=wrap;html=1;fontSize=18;fontFamily=Lucida Console;hachureGap=4;rounded=1;sketch=1;strokeColor=#FFD966;fillColor=#FFFFFF;fillStyle=solid;" vertex="1" parent="1">
          <mxGeometry x="840" y="970" width="120" height="60" as="geometry" />
        </mxCell>
      </root>
    </mxGraphModel>
  </diagram>
</mxfile>
